<?xml version="1.0" encoding="UTF-8" standalone="no"?>
<!-- Created with Inkscape (http://www.inkscape.org/) -->

<svg
   width="210mm"
   height="297mm"
   viewBox="0 0 210 297"
   version="1.1"
   id="svg5"
   inkscape:version="1.1.1 (3bf5ae0d25, 2021-09-20)"
   sodipodi:docname="Croix.svg"
   xmlns:inkscape="http://www.inkscape.org/namespaces/inkscape"
   xmlns:sodipodi="http://sodipodi.sourceforge.net/DTD/sodipodi-0.dtd"
   xmlns="http://www.w3.org/2000/svg"
   xmlns:svg="http://www.w3.org/2000/svg">
  <sodipodi:namedview
     id="namedview7"
     pagecolor="#ffffff"
     bordercolor="#999999"
     borderopacity="1"
     inkscape:pageshadow="0"
     inkscape:pageopacity="0"
     inkscape:pagecheckerboard="0"
     inkscape:document-units="mm"
     showgrid="false"
     showguides="true"
     inkscape:guide-bbox="true"
     inkscape:zoom="7.2466938"
     inkscape:cx="48.642872"
     inkscape:cy="75.206711"
     inkscape:window-width="1620"
     inkscape:window-height="1010"
     inkscape:window-x="-6"
     inkscape:window-y="-6"
     inkscape:window-maximized="1"
     inkscape:current-layer="layer1">
    <sodipodi:guide
       position="21.358878,292.32661"
       orientation="0,-1"
       id="guide3008" />
  </sodipodi:namedview>
  <defs
     id="defs2" />
  <g
     inkscape:label="Calque 1"
     inkscape:groupmode="layer"
     id="layer1">
    <path
       id="rect2234"
       style="fill:#646464;fill-opacity:0.25;stroke:#000000;stroke-width:1.70444;stroke-linecap:square;stroke-linejoin:round;stroke-miterlimit:6.6;stroke-dasharray:none;stroke-opacity:1"
       d="M 40.941406 0.8515625 C 39.670752 0.8515625 38.648438 1.8758305 38.648438 3.1464844 L 38.648438 38.648438 L 3.1464844 38.648438 C 1.8758307 38.648438 0.8515625 39.670753 0.8515625 40.941406 L 0.8515625 72.445312 C 0.8515625 73.715966 1.8758307 74.738281 3.1464844 74.738281 L 38.648438 74.738281 L 38.648438 110.24023 C 38.648438 111.51089 39.670752 112.5332 40.941406 112.5332 L 72.445312 112.5332 C 73.715966 112.5332 74.738281 111.51089 74.738281 110.24023 L 74.738281 74.738281 L 110.24023 74.738281 C 111.51089 74.738281 112.5332 73.715966 112.5332 72.445312 L 112.5332 40.941406 C 112.5332 39.670753 111.51089 38.648438 110.24023 38.648438 L 74.738281 38.648438 L 74.738281 3.1464844 C 74.738281 1.8758305 73.715966 0.8515625 72.445312 0.8515625 L 40.941406 0.8515625 z "
       transform="scale(0.26458333)" />
    <path
       id="rect2773"
       style="fill:#646464;fill-opacity:0.25;stroke:#000000;stroke-width:0.465;stroke-linecap:square;stroke-linejoin:round;stroke-miterlimit:6.6;stroke-dasharray:none;stroke-opacity:1"
       d="m 6.0182993,11.726504 c -0.153374,0 -0.306745,0.0587 -0.424265,0.176217 l -2.687174,2.687174 c -0.235043,0.235043 -0.235043,0.613485 0,0.848527 l 2.687174,2.687175 c 0.179811,0.17981 0.443238,0.22191 0.662493,0.126607 V 11.77663 C 6.1805473,11.74359 6.0996213,11.7265 6.0182993,11.7265 Z" />
    <path
       id="rect2773-4"
       style="fill:#646464;fill-opacity:0.25;stroke:#000000;stroke-width:0.465;stroke-linecap:square;stroke-linejoin:round;stroke-miterlimit:6.6;stroke-dasharray:none;stroke-opacity:1"
       d="m 18.301325,6.0182993 c 0,-0.153374 -0.0587,-0.306745 -0.176217,-0.424265 l -2.687174,-2.687174 c -0.235043,-0.235043 -0.613485,-0.235043 -0.848527,0 l -2.687175,2.687174 c -0.17981,0.179811 -0.22191,0.443238 -0.126607,0.662493 h 6.475574 c 0.03304,-0.07598 0.05013,-0.156906 0.05013,-0.238228 z" />
    <path
       id="rect2773-8"
       style="fill:#646464;fill-opacity:0.25;stroke:#000000;stroke-width:0.465;stroke-linecap:square;stroke-linejoin:round;stroke-miterlimit:6.6;stroke-dasharray:none;stroke-opacity:1"
       d="m 23.970728,11.7265 c 0.153374,0 0.306745,0.0587 0.424265,0.176217 l 2.687174,2.687174 c 0.235043,0.235043 0.235043,0.613485 0,0.848527 l -2.687174,2.687175 c -0.179811,0.17981 -0.443238,0.22191 -0.662493,0.126607 v -6.475574 c 0.07598,-0.03304 0.156906,-0.05013 0.238228,-0.05013 z" />
    <path
       id="rect2773-5"
       style="fill:#646464;fill-opacity:0.25;stroke:#000000;stroke-width:0.465;stroke-linecap:square;stroke-linejoin:round;stroke-miterlimit:6.6;stroke-dasharray:none;stroke-opacity:1"
       d="m 11.726504,23.970728 c 0,0.153374 0.0587,0.306745 0.176217,0.424265 l 2.687173,2.687174 c 0.235044,0.235043 0.613485,0.235043 0.848527,0 l 2.687175,-2.687174 c 0.17981,-0.179811 0.22191,-0.443238 0.126607,-0.662493 H 11.77663 c -0.03304,0.07598 -0.05013,0.156906 -0.05013,0.238228 z" />
  </g>
</svg>
